<svg width="120" height="33" xmlns="http://www.w3.org/2000/svg">
    <g fill-rule="nonzero" fill="none">
        <path d="M38.169 24.755h2.789v-5.228h1.165c2.955 0 5.286-1.162 5.286-4.357 0-3.278-2.747-4.15-5.744-4.15H38.17v13.735zm2.789-11.577h.957c1.415 0 2.622.54 2.622 2.158 0 1.618-1.248 2.033-2.622 2.033h-.957v-4.19zm34.755 11.577h2.497V23.47a3.789 3.789 0 003.038 1.535c3.039 0 4.287-2.572 4.287-5.311 0-2.78-1.165-5.27-4.203-5.27-1.207 0-2.373.581-3.08 1.577V9.983h-2.54v14.772zm2.58-5.104c0-1.41.666-3.236 2.373-3.236 1.706 0 2.247 1.867 2.247 3.236 0 1.411-.54 3.278-2.289 3.278-1.748 0-2.33-1.825-2.33-3.278m31.258 5.104V9.983h2.664v8.673h.041l3.163-4.067h3.122l-3.788 4.523L119 24.714h-3.371l-3.372-4.897h-.041v4.897l-2.664.041zm-11.571 0V14.631h2.497V16h.042a3.759 3.759 0 013.33-1.618c2.413 0 3.454 1.701 3.454 3.983v6.39h-2.664v-5.394c0-1.245 0-2.905-1.706-2.905-1.915 0-2.331 2.075-2.331 3.361v4.938H97.98zm-31.592-10l-.166 1.992c-.75-.29-1.54-.457-2.373-.415-.707 0-1.54.249-1.54 1.12 0 1.619 4.579.581 4.579 4.233 0 2.365-2.123 3.32-4.246 3.32-.999 0-2.04-.167-2.997-.416l.167-2.157c.79.414 1.706.663 2.622.663.666 0 1.748-.249 1.748-1.244 0-1.992-4.578-.623-4.578-4.274 0-2.2 1.914-3.154 3.995-3.154.874-.041 1.832.083 2.79.332m2.871 6.93v-5.146h-1.956v-1.908h1.956v-2.033l2.622-.83v2.863h2.331v1.908h-2.33v4.73c0 .872.249 1.66 1.248 1.66a2.47 2.47 0 001.207-.29l.083 2.075a7.661 7.661 0 01-1.956.249c-2.081.041-3.205-1.245-3.205-3.278m-18.938-2.241c0-1.577.832-3.112 2.539-3.112 1.748 0 2.58 1.494 2.58 3.112 0 1.743-.54 3.61-2.58 3.61-1.998 0-2.54-1.909-2.54-3.61m-2.746.332c0 2.987 1.956 5.353 5.286 5.353 3.371 0 5.327-2.366 5.327-5.353 0-3.403-2.289-5.477-5.327-5.477-2.997 0-5.286 2.033-5.286 5.477m41.622 2.033c0-1.535 1.748-1.743 2.955-1.743h1.124c.042.747-.125 1.453-.54 2.075-.417.581-1.125.913-1.874.913-.957 0-1.665-.374-1.665-1.245m-1.332-4.398a5.405 5.405 0 013.122-1.12c1.54 0 2.29.539 2.29 2.199H91.82a8.7 8.7 0 00-3.413.58 2.965 2.965 0 00-1.748 2.905c0 1.909 1.748 2.988 3.538 2.988 1.29 0 2.456-.664 3.122-1.743h.041c0 .498.042.996.125 1.494h2.331c-.041-.789-.083-1.494-.125-2.282 0-.747-.041-1.494-.041-2.532v-1.286c0-2.987-1.29-4.274-4.37-4.274-1.208 0-2.415.29-3.539.747l.125 2.324zM12.946 6.332L25.39 6a28.314 28.314 0 00-13.694 20H1c.79-5.934 5.619-15.81 11.946-19.668m18.105 7.8a14.697 14.697 0 00-6.66 9.793h-3.204c.541-3.278 2.622-7.469 5.66-9.71l4.204-.082" fill="#0A3478"/>
        <path d="M20.729 11.21L28 11c-5.983 3.186-8.934 9.85-9.474 14H13c.499-3.395 2.784-10.06 7.729-13.79" fill="#E10014"/>
    </g>
</svg>
